<!--?xml version="1.0" encoding="utf-8"?-->
<!-- Generator: Adobe Illustrator 18.1.1, SVG Export Plug-In . SVG Version: 6.00 Build 0)  -->

<svg version="1.1" id="_x32_" xmlns="http://www.w3.org/2000/svg" xmlns:xlink="http://www.w3.org/1999/xlink" x="0px" y="0px" viewBox="0 0 512 512" style="width: 16px; height: 16px; opacity: 1;" xml:space="preserve">
<style type="text/css">
	.st0{fill:#4B4B4B;}
</style>
<g>
	<path class="st0" d="M511.988,68.844c0.269-10.512-4.044-19.382-10.567-27.841c-1.469-3.673-6.098-7.195-9.288-9.668
		c-0.08-0.102-0.159-0.212-0.222-0.315c0.063,0.094,0.111,0.189,0.174,0.284c-3.759-2.914-8.625-4.889-14.47-5.513L251.806,1.543
		c-20.362-2.188-44.83,12.163-54.481,31.893L3.898,428.914c-3.997,8.175-4.802,16.041-2.954,22.612
		c-0.442,18.893,16.302,33.481,33.473,35.329c2.97,0.316,5.924,0.632,8.878,0.948c16.538,1.777,33.077,3.554,49.616,5.332
		c44.893,4.818,89.771,9.636,134.664,14.461c23.268,2.504,45.858,7.725,66.787-6.066c23.22-15.259,34.515-40.477,50.122-73.761
		c58.542-124.855,99.565-213.156,160.175-337.032c3.428-7.021,6.998-13.877,7.329-21.886
		C512.004,68.086,511.988,68.733,511.988,68.844z M167.596,436.758c-4.676,9.066-16.538,15.622-26.364,14.611
		c-9.826-0.996-13.98-9.178-9.304-18.245c4.659-9.036,16.459-15.599,26.254-14.596C168.006,419.523,172.271,427.722,167.596,436.758
		z M297.016,396.785L69.595,372.356L227.906,48.767l227.421,24.429L297.016,396.785z" style="fill: rgb(75, 75, 75);"></path>
</g>
</svg>
